STARTFONT 2.1
COMMENT
COMMENT Converted from OpenType font "awesome_icons.ttf" by "otf2bdf 3.0".
COMMENT
FONT -FreeType-awesome_icons-Medium-R-Normal--22-160-100-100-P-45-ISO10646-1
SIZE 16 100 100
FONTBOUNDINGBOX 28 28 -3 -5
STARTPROPERTIES 19
FOUNDRY "FreeType"
FAMILY_NAME "awesome_icons"
WEIGHT_NAME "Medium"
SLANT "R"
SETWIDTH_NAME "Normal"
ADD_STYLE_NAME ""
PIXEL_SIZE 22
POINT_SIZE 160
RESOLUTION_X 100
RESOLUTION_Y 100
SPACING "P"
AVERAGE_WIDTH 45
CHARSET_REGISTRY "ISO10646"
CHARSET_ENCODING "1"
FONT_ASCENT 18
FONT_DESCENT 4
COPYRIGHT "Typeface © (your company). 2021. All Rights Reserved"
_OTF_FONTFILE "awesome_icons.ttf"
_OTF_PSNAME "awesome_icons"
ENDPROPERTIES
CHARS 241
STARTCHAR 0000
ENCODING 0
SWIDTH 0 0
DWIDTH 0 0
BBX 0 0 0 0
BITMAP
ENDCHAR
STARTCHAR 001D
ENCODING 29
SWIDTH 0 0
DWIDTH 0 0
BBX 0 0 0 0
BITMAP
ENDCHAR
STARTCHAR 0020
ENCODING 32
SWIDTH 270 0
DWIDTH 6 0
BBX 0 0 0 0
BITMAP
ENDCHAR
STARTCHAR 0021
ENCODING 33
SWIDTH 315 0
DWIDTH 7 0
BBX 3 16 2 0
BITMAP
40
60
40
40
40
40
40
40
40
40
40
40
00
40
E0
40
ENDCHAR
STARTCHAR 0022
ENCODING 34
SWIDTH 315 0
DWIDTH 7 0
BBX 5 5 1 12
BITMAP
C8
C8
C8
88
88
ENDCHAR
STARTCHAR 0023
ENCODING 35
SWIDTH 675 0
DWIDTH 15 0
BBX 12 15 1 0
BITMAP
0220
0240
0440
0440
0440
7FF0
0880
0880
0900
FFE0
1100
1200
3200
2200
2200
ENDCHAR
STARTCHAR 0024
ENCODING 36
SWIDTH 450 0
DWIDTH 10 0
BBX 9 20 1 -3
BITMAP
0800
0800
7F00
8900
8800
8800
8800
E800
7C00
3E00
0F00
0980
0880
0880
8880
8900
C900
BE00
0800
0800
ENDCHAR
STARTCHAR 0025
ENCODING 37
SWIDTH 855 0
DWIDTH 19 0
BBX 17 16 1 0
BITMAP
380C00
7C1800
C61800
C63000
C62000
C66000
7CC000
38C000
018E00
019F00
033180
063180
063180
0C3180
0C1F00
180E00
ENDCHAR
STARTCHAR 0026
ENCODING 38
SWIDTH 855 0
DWIDTH 19 0
BBX 16 16 2 0
BITMAP
1D00
2300
2100
2000
2000
3000
7800
8C3E
8608
8208
8110
8190
C0E0
4060
30F1
1F1E
ENDCHAR
STARTCHAR 0027
ENCODING 39
SWIDTH 180 0
DWIDTH 4 0
BBX 2 5 1 12
BITMAP
C0
C0
C0
80
80
ENDCHAR
STARTCHAR 0028
ENCODING 40
SWIDTH 360 0
DWIDTH 8 0
BBX 5 21 3 -4
BITMAP
10
10
20
20
40
40
C0
C0
C0
C0
C0
C0
C0
C0
C0
40
40
20
20
10
18
ENDCHAR
STARTCHAR 0029
ENCODING 41
SWIDTH 360 0
DWIDTH 8 0
BBX 5 21 1 -4
BITMAP
80
40
60
20
30
10
10
10
18
18
18
18
18
10
10
10
30
20
60
40
80
ENDCHAR
STARTCHAR 002A
ENCODING 42
SWIDTH 540 0
DWIDTH 12 0
BBX 6 6 3 12
BITMAP
30
A4
FC
60
58
58
ENDCHAR
STARTCHAR 002B
ENCODING 43
SWIDTH 495 0
DWIDTH 11 0
BBX 9 10 1 3
BITMAP
0C00
0C00
0C00
0C00
FF80
FF80
0C00
0C00
0C00
0C00
ENDCHAR
STARTCHAR 002C
ENCODING 44
SWIDTH 270 0
DWIDTH 6 0
BBX 3 6 1 -3
BITMAP
40
E0
60
20
40
40
ENDCHAR
STARTCHAR 002D
ENCODING 45
SWIDTH 315 0
DWIDTH 7 0
BBX 5 2 1 4
BITMAP
F0
F8
ENDCHAR
STARTCHAR 002E
ENCODING 46
SWIDTH 270 0
DWIDTH 6 0
BBX 3 3 1 0
BITMAP
40
E0
40
ENDCHAR
STARTCHAR 002F
ENCODING 47
SWIDTH 270 0
DWIDTH 6 0
BBX 7 16 0 -1
BITMAP
02
04
04
04
08
08
08
10
10
20
20
20
40
40
40
80
ENDCHAR
STARTCHAR 0030
ENCODING 48
SWIDTH 585 0
DWIDTH 13 0
BBX 10 16 1 0
BITMAP
1E00
3F00
7180
6180
E0C0
C0C0
C0C0
C0C0
C0C0
C0C0
C0C0
E0C0
6180
7180
3F00
1E00
ENDCHAR
STARTCHAR 0031
ENCODING 49
SWIDTH 585 0
DWIDTH 13 0
BBX 6 15 2 0
BITMAP
0C
3C
7C
EC
0C
0C
0C
0C
0C
0C
0C
0C
0C
0C
0C
ENDCHAR
STARTCHAR 0032
ENCODING 50
SWIDTH 585 0
DWIDTH 13 0
BBX 9 16 2 0
BITMAP
3C00
FF00
C380
0180
0180
0180
0300
0700
0E00
1C00
3800
7000
6000
E000
FF80
FF80
ENDCHAR
STARTCHAR 0033
ENCODING 51
SWIDTH 585 0
DWIDTH 13 0
BBX 10 16 1 0
BITMAP
3E00
7F00
4380
0180
0180
0380
1F00
1F00
0380
01C0
00C0
00C0
00C0
0180
FF80
7E00
ENDCHAR
STARTCHAR 0034
ENCODING 52
SWIDTH 585 0
DWIDTH 13 0
BBX 11 15 1 0
BITMAP
0380
0780
0F80
0D80
1980
3180
3180
6180
4180
FFE0
FFE0
0180
0180
0180
0180
ENDCHAR
STARTCHAR 0035
ENCODING 53
SWIDTH 585 0
DWIDTH 13 0
BBX 9 16 2 0
BITMAP
7F80
7F80
6000
6000
6000
6000
7800
7E00
0700
0380
0180
0180
0180
0380
FF00
FC00
ENDCHAR
STARTCHAR 0036
ENCODING 54
SWIDTH 585 0
DWIDTH 13 0
BBX 10 16 1 0
BITMAP
0180
0F80
1C00
3000
6000
6000
CC00
FF80
C180
C0C0
C0C0
C0C0
E0C0
6180
3F80
1E00
ENDCHAR
STARTCHAR 0037
ENCODING 55
SWIDTH 585 0
DWIDTH 13 0
BBX 10 16 1 0
BITMAP
FFC0
FFC0
0180
0380
0300
0600
0600
0C00
0C00
0C00
1800
1800
1800
1800
3800
3800
ENDCHAR
STARTCHAR 0038
ENCODING 56
SWIDTH 585 0
DWIDTH 13 0
BBX 10 16 1 0
BITMAP
1F00
7F80
E1C0
C0C0
C0C0
E0C0
7180
3F00
7F80
61C0
C0C0
C0C0
C0C0
E1C0
7F80
3F00
ENDCHAR
STARTCHAR 0039
ENCODING 57
SWIDTH 585 0
DWIDTH 13 0
BBX 10 16 1 0
BITMAP
0C00
3F00
6380
E180
C0C0
C0C0
C0C0
E0C0
7FC0
3EC0
01C0
0180
0380
0700
7E00
7000
ENDCHAR
STARTCHAR 003A
ENCODING 58
SWIDTH 225 0
DWIDTH 5 0
BBX 3 12 1 0
BITMAP
E0
E0
E0
00
00
00
00
00
00
E0
E0
E0
ENDCHAR
STARTCHAR 003B
ENCODING 59
SWIDTH 270 0
DWIDTH 6 0
BBX 3 13 1 -3
BITMAP
60
60
00
00
00
00
00
40
E0
60
20
20
40
ENDCHAR
STARTCHAR 003C
ENCODING 60
SWIDTH 495 0
DWIDTH 11 0
BBX 9 11 1 2
BITMAP
0180
0380
0E00
3800
F000
E000
7000
1C00
0700
0180
0080
ENDCHAR
STARTCHAR 003D
ENCODING 61
SWIDTH 495 0
DWIDTH 11 0
BBX 9 5 1 5
BITMAP
FF80
FF80
0000
FF80
FF80
ENDCHAR
STARTCHAR 003E
ENCODING 62
SWIDTH 495 0
DWIDTH 11 0
BBX 9 11 1 2
BITMAP
C000
E000
3800
0E00
0780
0380
0700
1C00
7000
C000
8000
ENDCHAR
STARTCHAR 003F
ENCODING 63
SWIDTH 405 0
DWIDTH 9 0
BBX 6 16 2 0
BITMAP
78
9C
0C
0C
0C
18
30
20
60
40
40
40
00
40
E0
40
ENDCHAR
STARTCHAR 0040
ENCODING 64
SWIDTH 945 0
DWIDTH 21 0
BBX 19 21 1 -5
BITMAP
00F000
070E00
080300
100180
2000C0
60E0C0
411060
C11860
C03860
C1D860
C31860
C21860
C618C0
C21880
631900
60EE00
300000
100000
080100
060600
01F800
ENDCHAR
STARTCHAR 0041
ENCODING 65
SWIDTH 1035 0
DWIDTH 23 0
BBX 23 20 0 -1
BITMAP
1C3FFC
1C3FFE
1C3FFC
1C0000
1C0000
1C0000
1C3FF0
1C3FF0
1C3FF0
1C0000
1C0000
1C0000
1C3F80
1C3F80
1C3F80
FF8000
7F0000
3E3C00
1C3C00
083C00
ENDCHAR
STARTCHAR 0042
ENCODING 66
SWIDTH 1035 0
DWIDTH 23 0
BBX 23 20 0 -1
BITMAP
083FFC
1C3FFE
3E3FFC
7E0000
7F0000
FF8000
1C3FF0
1C3FF0
1C3FF0
1C0000
1C0000
1C0000
1C3F80
1C3F80
1C3F80
1C0000
1C0000
1C3C00
1C3C00
1C3C00
ENDCHAR
STARTCHAR 0043
ENCODING 67
SWIDTH 1125 0
DWIDTH 25 0
BBX 25 19 0 -1
BITMAP
001C3800
007E3800
00FF3800
01E7F800
03CBF800
0FBCF800
1F7F7C00
3CFFBE00
F9FFCF00
F3FFE780
4FFFFB00
0FFFF800
0FFFF800
0FC1F800
0FC1F800
0FC1F800
0FC1F800
0FC1F800
0FC1F800
ENDCHAR
STARTCHAR 0044
ENCODING 68
SWIDTH 540 0
DWIDTH 12 0
BBX 11 22 1 -3
BITMAP
1F00
3F80
71C0
60C0
60C0
60C0
60C0
60C0
6EC0
6EC0
6EC0
6EC0
6EC0
6EC0
CF60
DF60
DFE0
DF60
EFE0
71C0
3F80
1F00
ENDCHAR
STARTCHAR 0045
ENCODING 69
SWIDTH 765 0
DWIDTH 17 0
BBX 17 21 0 -3
BITMAP
008000
01C000
03E000
07F000
0FF800
1FFC00
1FEE00
21CE00
64DF00
649F00
E4BF80
E1BF80
F12380
FF4180
FE4980
FEC980
7CC900
7DE300
3DFE00
1FFC00
0FF800
ENDCHAR
STARTCHAR 0046
ENCODING 70
SWIDTH 810 0
DWIDTH 18 0
BBX 17 20 1 -2
BITMAP
03E000
0FF800
3C9E00
308600
689300
E43300
C02180
C06180
D8ED80
C1C180
C1E180
60C300
700300
380E00
1E3C00
0FF800
03E000
03E000
03E000
03E000
ENDCHAR
STARTCHAR 0047
ENCODING 71
SWIDTH 990 0
DWIDTH 22 0
BBX 22 19 0 -2
BITMAP
0007C0
000FE0
001FE0
001C60
0000E0
FFFFE0
FFFFE0
FFFF80
000000
000000
FF9FF0
FFCFF8
FFEFFC
00E01C
1CE01C
1FE71C
0FC7BC
0783F8
0001F0
ENDCHAR
STARTCHAR 0048
ENCODING 72
SWIDTH 540 0
DWIDTH 12 0
BBX 12 26 0 -3
BITMAP
0F00
1F80
1980
1980
1980
1980
1980
1980
1980
1D80
1D80
1D80
1D80
1D80
1D80
3DC0
74E0
6660
DF30
DFB0
DFB0
DFB0
6F60
70E0
3FC0
0F00
ENDCHAR
STARTCHAR 0049
ENCODING 73
SWIDTH 180 0
DWIDTH 4 0
BBX 4 4 0 13
BITMAP
60
90
90
60
ENDCHAR
STARTCHAR 004A
ENCODING 74
SWIDTH 540 0
DWIDTH 12 0
BBX 12 11 0 4
BITMAP
61E0
F310
9210
9200
6200
0200
0200
0200
0200
0310
01F0
ENDCHAR
STARTCHAR 004B
ENCODING 75
SWIDTH 405 0
DWIDTH 9 0
BBX 9 12 0 5
BITMAP
0300
0300
6000
E000
E000
E200
0700
0F80
0F80
1F80
0F80
0700
ENDCHAR
STARTCHAR 004C
ENCODING 76
SWIDTH 540 0
DWIDTH 12 0
BBX 0 0 0 0
BITMAP
ENDCHAR
STARTCHAR 004D
ENCODING 77
SWIDTH 900 0
DWIDTH 20 0
BBX 0 0 0 0
BITMAP
ENDCHAR
STARTCHAR 004E
ENCODING 78
SWIDTH 765 0
DWIDTH 17 0
BBX 0 0 0 0
BITMAP
ENDCHAR
STARTCHAR 004F
ENCODING 79
SWIDTH 810 0
DWIDTH 18 0
BBX 0 0 0 0
BITMAP
ENDCHAR
STARTCHAR 0050
ENCODING 80
SWIDTH 540 0
DWIDTH 12 0
BBX 0 0 0 0
BITMAP
ENDCHAR
STARTCHAR 0051
ENCODING 81
SWIDTH 810 0
DWIDTH 18 0
BBX 0 0 0 0
BITMAP
ENDCHAR
STARTCHAR 0052
ENCODING 82
SWIDTH 630 0
DWIDTH 14 0
BBX 0 0 0 0
BITMAP
ENDCHAR
STARTCHAR 0053
ENCODING 83
SWIDTH 540 0
DWIDTH 12 0
BBX 0 0 0 0
BITMAP
ENDCHAR
STARTCHAR 0054
ENCODING 84
SWIDTH 675 0
DWIDTH 15 0
BBX 0 0 0 0
BITMAP
ENDCHAR
STARTCHAR 0055
ENCODING 85
SWIDTH 720 0
DWIDTH 16 0
BBX 0 0 0 0
BITMAP
ENDCHAR
STARTCHAR 0056
ENCODING 86
SWIDTH 720 0
DWIDTH 16 0
BBX 0 0 0 0
BITMAP
ENDCHAR
STARTCHAR 0057
ENCODING 87
SWIDTH 990 0
DWIDTH 22 0
BBX 0 0 0 0
BITMAP
ENDCHAR
STARTCHAR 0058
ENCODING 88
SWIDTH 675 0
DWIDTH 15 0
BBX 0 0 0 0
BITMAP
ENDCHAR
STARTCHAR 0059
ENCODING 89
SWIDTH 585 0
DWIDTH 13 0
BBX 0 0 0 0
BITMAP
ENDCHAR
STARTCHAR 005A
ENCODING 90
SWIDTH 540 0
DWIDTH 12 0
BBX 0 0 0 0
BITMAP
ENDCHAR
STARTCHAR 005B
ENCODING 91
SWIDTH 360 0
DWIDTH 8 0
BBX 0 0 0 0
BITMAP
ENDCHAR
STARTCHAR 005C
ENCODING 92
SWIDTH 270 0
DWIDTH 6 0
BBX 0 0 0 0
BITMAP
ENDCHAR
STARTCHAR 005D
ENCODING 93
SWIDTH 360 0
DWIDTH 8 0
BBX 0 0 0 0
BITMAP
ENDCHAR
STARTCHAR 005E
ENCODING 94
SWIDTH 495 0
DWIDTH 11 0
BBX 0 0 0 0
BITMAP
ENDCHAR
STARTCHAR 005F
ENCODING 95
SWIDTH 495 0
DWIDTH 11 0
BBX 11 1 0 -2
BITMAP
FFE0
ENDCHAR
STARTCHAR 0060
ENCODING 96
SWIDTH 495 0
DWIDTH 11 0
BBX 5 4 2 12
BITMAP
C0
E0
30
18
ENDCHAR
STARTCHAR 0061
ENCODING 97
SWIDTH 450 0
DWIDTH 10 0
BBX 0 0 0 0
BITMAP
ENDCHAR
STARTCHAR 0062
ENCODING 98
SWIDTH 495 0
DWIDTH 11 0
BBX 0 0 0 0
BITMAP
ENDCHAR
STARTCHAR 0063
ENCODING 99
SWIDTH 450 0
DWIDTH 10 0
BBX 0 0 0 0
BITMAP
ENDCHAR
STARTCHAR 0064
ENCODING 100
SWIDTH 495 0
DWIDTH 11 0
BBX 0 0 0 0
BITMAP
ENDCHAR
STARTCHAR 0065
ENCODING 101
SWIDTH 450 0
DWIDTH 10 0
BBX 0 0 0 0
BITMAP
ENDCHAR
STARTCHAR 0066
ENCODING 102
SWIDTH 270 0
DWIDTH 6 0
BBX 0 0 0 0
BITMAP
ENDCHAR
STARTCHAR 0067
ENCODING 103
SWIDTH 450 0
DWIDTH 10 0
BBX 0 0 0 0
BITMAP
ENDCHAR
STARTCHAR 0068
ENCODING 104
SWIDTH 540 0
DWIDTH 12 0
BBX 0 0 0 0
BITMAP
ENDCHAR
STARTCHAR 0069
ENCODING 105
SWIDTH 270 0
DWIDTH 6 0
BBX 0 0 0 0
BITMAP
ENDCHAR
STARTCHAR 006A
ENCODING 106
SWIDTH 270 0
DWIDTH 6 0
BBX 0 0 0 0
BITMAP
ENDCHAR
STARTCHAR 006B
ENCODING 107
SWIDTH 495 0
DWIDTH 11 0
BBX 0 0 0 0
BITMAP
ENDCHAR
STARTCHAR 006C
ENCODING 108
SWIDTH 270 0
DWIDTH 6 0
BBX 0 0 0 0
BITMAP
ENDCHAR
STARTCHAR 006D
ENCODING 109
SWIDTH 765 0
DWIDTH 17 0
BBX 0 0 0 0
BITMAP
ENDCHAR
STARTCHAR 006E
ENCODING 110
SWIDTH 540 0
DWIDTH 12 0
BBX 0 0 0 0
BITMAP
ENDCHAR
STARTCHAR 006F
ENCODING 111
SWIDTH 495 0
DWIDTH 11 0
BBX 0 0 0 0
BITMAP
ENDCHAR
STARTCHAR 0070
ENCODING 112
SWIDTH 495 0
DWIDTH 11 0
BBX 0 0 0 0
BITMAP
ENDCHAR
STARTCHAR 0071
ENCODING 113
SWIDTH 495 0
DWIDTH 11 0
BBX 0 0 0 0
BITMAP
ENDCHAR
STARTCHAR 0072
ENCODING 114
SWIDTH 360 0
DWIDTH 8 0
BBX 0 0 0 0
BITMAP
ENDCHAR
STARTCHAR 0073
ENCODING 115
SWIDTH 360 0
DWIDTH 8 0
BBX 0 0 0 0
BITMAP
ENDCHAR
STARTCHAR 0074
ENCODING 116
SWIDTH 315 0
DWIDTH 7 0
BBX 0 0 0 0
BITMAP
ENDCHAR
STARTCHAR 0075
ENCODING 117
SWIDTH 495 0
DWIDTH 11 0
BBX 0 0 0 0
BITMAP
ENDCHAR
STARTCHAR 0076
ENCODING 118
SWIDTH 495 0
DWIDTH 11 0
BBX 0 0 0 0
BITMAP
ENDCHAR
STARTCHAR 0077
ENCODING 119
SWIDTH 675 0
DWIDTH 15 0
BBX 0 0 0 0
BITMAP
ENDCHAR
STARTCHAR 0078
ENCODING 120
SWIDTH 495 0
DWIDTH 11 0
BBX 0 0 0 0
BITMAP
ENDCHAR
STARTCHAR 0079
ENCODING 121
SWIDTH 405 0
DWIDTH 9 0
BBX 0 0 0 0
BITMAP
ENDCHAR
STARTCHAR 007A
ENCODING 122
SWIDTH 360 0
DWIDTH 8 0
BBX 0 0 0 0
BITMAP
ENDCHAR
STARTCHAR 007B
ENCODING 123
SWIDTH 495 0
DWIDTH 11 0
BBX 7 20 3 -3
BITMAP
0E
10
10
10
10
10
10
10
30
C0
30
10
10
10
10
10
10
10
10
0E
ENDCHAR
STARTCHAR 007C
ENCODING 124
SWIDTH 495 0
DWIDTH 11 0
BBX 2 22 5 -5
BITMAP
C0
C0
C0
C0
C0
C0
C0
C0
C0
C0
C0
C0
C0
C0
C0
C0
C0
C0
C0
C0
C0
C0
ENDCHAR
STARTCHAR 007D
ENCODING 125
SWIDTH 495 0
DWIDTH 11 0
BBX 7 20 1 -3
BITMAP
E0
10
10
10
10
10
10
10
18
06
18
10
10
10
10
10
10
10
10
E0
ENDCHAR
STARTCHAR 007E
ENCODING 126
SWIDTH 495 0
DWIDTH 11 0
BBX 9 3 1 7
BITMAP
2000
FF80
8F00
ENDCHAR
STARTCHAR 00A0
ENCODING 160
SWIDTH 270 0
DWIDTH 6 0
BBX 0 0 0 0
BITMAP
ENDCHAR
STARTCHAR 00A1
ENCODING 161
SWIDTH 315 0
DWIDTH 7 0
BBX 0 0 0 0
BITMAP
ENDCHAR
STARTCHAR 00A2
ENCODING 162
SWIDTH 540 0
DWIDTH 12 0
BBX 0 0 0 0
BITMAP
ENDCHAR
STARTCHAR 00A3
ENCODING 163
SWIDTH 495 0
DWIDTH 11 0
BBX 9 16 1 0
BITMAP
0F80
3080
2000
6000
6000
6000
6000
6000
FE00
3000
3000
3000
3000
2000
6080
7F80
ENDCHAR
STARTCHAR 00A4
ENCODING 164
SWIDTH 495 0
DWIDTH 11 0
BBX 7 8 2 4
BITMAP
BA
44
82
82
82
44
FE
82
ENDCHAR
STARTCHAR 00A5
ENCODING 165
SWIDTH 585 0
DWIDTH 13 0
BBX 13 14 0 0
BITMAP
8040
7878
3030
1020
1840
FCF8
0700
FFF8
0200
0200
0200
0200
0200
0F80
ENDCHAR
STARTCHAR 00A6
ENCODING 166
SWIDTH 495 0
DWIDTH 11 0
BBX 2 22 5 -5
BITMAP
C0
C0
C0
C0
C0
C0
C0
C0
C0
00
00
00
00
C0
C0
C0
C0
C0
C0
C0
C0
C0
ENDCHAR
STARTCHAR 00A7
ENCODING 167
SWIDTH 495 0
DWIDTH 11 0
BBX 7 20 2 -5
BITMAP
78
84
84
80
E0
F0
7C
7E
86
82
82
E4
78
3C
0E
06
02
82
84
78
ENDCHAR
STARTCHAR 00A8
ENCODING 168
SWIDTH 495 0
DWIDTH 11 0
BBX 7 2 2 13
BITMAP
EE
44
ENDCHAR
STARTCHAR 00A9
ENCODING 169
SWIDTH 810 0
DWIDTH 18 0
BBX 16 16 1 0
BITMAP
03C0
0C30
31EC
4624
4802
9802
9801
9801
9801
9801
8812
4412
43E4
2004
1818
07E0
ENDCHAR
STARTCHAR 00AB
ENCODING 171
SWIDTH 495 0
DWIDTH 11 0
BBX 7 6 2 2
BITMAP
12
24
C8
4C
22
12
ENDCHAR
STARTCHAR 00AC
ENCODING 172
SWIDTH 495 0
DWIDTH 11 0
BBX 9 5 1 3
BITMAP
FF80
0080
0080
0080
0080
ENDCHAR
STARTCHAR 00AD
ENCODING 173
SWIDTH 315 0
DWIDTH 7 0
BBX 5 2 1 4
BITMAP
F0
F8
ENDCHAR
STARTCHAR 00AE
ENCODING 174
SWIDTH 810 0
DWIDTH 18 0
BBX 16 16 1 0
BITMAP
03C0
0C30
300C
47C4
4662
8622
8631
8621
8661
87C1
8662
4622
477C
2004
1818
07E0
ENDCHAR
STARTCHAR 00AF
ENCODING 175
SWIDTH 315 0
DWIDTH 7 0
BBX 0 0 0 0
BITMAP
ENDCHAR
STARTCHAR 00B0
ENCODING 176
SWIDTH 360 0
DWIDTH 8 0
BBX 6 6 1 9
BITMAP
30
48
84
84
48
30
ENDCHAR
STARTCHAR 00B1
ENCODING 177
SWIDTH 495 0
DWIDTH 11 0
BBX 0 0 0 0
BITMAP
ENDCHAR
STARTCHAR 00B2
ENCODING 178
SWIDTH 495 0
DWIDTH 11 0
BBX 0 0 0 0
BITMAP
ENDCHAR
STARTCHAR 00B3
ENCODING 179
SWIDTH 495 0
DWIDTH 11 0
BBX 0 0 0 0
BITMAP
ENDCHAR
STARTCHAR 00B4
ENCODING 180
SWIDTH 495 0
DWIDTH 11 0
BBX 5 4 3 12
BITMAP
18
38
60
C0
ENDCHAR
STARTCHAR 00B5
ENCODING 181
SWIDTH 585 0
DWIDTH 13 0
BBX 0 0 0 0
BITMAP
ENDCHAR
STARTCHAR 00B6
ENCODING 182
SWIDTH 495 0
DWIDTH 11 0
BBX 9 16 1 0
BITMAP
3F80
7900
F900
F900
F900
F900
7900
1900
0900
0900
0900
0900
0900
0900
0900
0900
ENDCHAR
STARTCHAR 00B7
ENCODING 183
SWIDTH 270 0
DWIDTH 6 0
BBX 3 3 1 6
BITMAP
40
E0
40
ENDCHAR
STARTCHAR 00B8
ENCODING 184
SWIDTH 495 0
DWIDTH 11 0
BBX 4 5 4 -5
BITMAP
40
60
10
10
E0
ENDCHAR
STARTCHAR 00B9
ENCODING 185
SWIDTH 495 0
DWIDTH 11 0
BBX 0 0 0 0
BITMAP
ENDCHAR
STARTCHAR 00BA
ENCODING 186
SWIDTH 360 0
DWIDTH 8 0
BBX 0 0 0 0
BITMAP
ENDCHAR
STARTCHAR 00BB
ENCODING 187
SWIDTH 450 0
DWIDTH 10 0
BBX 7 6 1 2
BITMAP
88
44
36
26
48
90
ENDCHAR
STARTCHAR 00BC
ENCODING 188
SWIDTH 855 0
DWIDTH 19 0
BBX 0 0 0 0
BITMAP
ENDCHAR
STARTCHAR 00BD
ENCODING 189
SWIDTH 945 0
DWIDTH 21 0
BBX 0 0 0 0
BITMAP
ENDCHAR
STARTCHAR 00BE
ENCODING 190
SWIDTH 855 0
DWIDTH 19 0
BBX 0 0 0 0
BITMAP
ENDCHAR
STARTCHAR 00BF
ENCODING 191
SWIDTH 360 0
DWIDTH 8 0
BBX 0 0 0 0
BITMAP
ENDCHAR
STARTCHAR 00C0
ENCODING 192
SWIDTH 765 0
DWIDTH 17 0
BBX 0 0 0 0
BITMAP
ENDCHAR
STARTCHAR 00C1
ENCODING 193
SWIDTH 765 0
DWIDTH 17 0
BBX 0 0 0 0
BITMAP
ENDCHAR
STARTCHAR 00C2
ENCODING 194
SWIDTH 765 0
DWIDTH 17 0
BBX 0 0 0 0
BITMAP
ENDCHAR
STARTCHAR 00C3
ENCODING 195
SWIDTH 765 0
DWIDTH 17 0
BBX 0 0 0 0
BITMAP
ENDCHAR
STARTCHAR 00C4
ENCODING 196
SWIDTH 765 0
DWIDTH 17 0
BBX 0 0 0 0
BITMAP
ENDCHAR
STARTCHAR 00C5
ENCODING 197
SWIDTH 765 0
DWIDTH 17 0
BBX 0 0 0 0
BITMAP
ENDCHAR
STARTCHAR 00C6
ENCODING 198
SWIDTH 1035 0
DWIDTH 23 0
BBX 0 0 0 0
BITMAP
ENDCHAR
STARTCHAR 00C7
ENCODING 199
SWIDTH 675 0
DWIDTH 15 0
BBX 0 0 0 0
BITMAP
ENDCHAR
STARTCHAR 00C8
ENCODING 200
SWIDTH 540 0
DWIDTH 12 0
BBX 0 0 0 0
BITMAP
ENDCHAR
STARTCHAR 00C9
ENCODING 201
SWIDTH 540 0
DWIDTH 12 0
BBX 0 0 0 0
BITMAP
ENDCHAR
STARTCHAR 00CA
ENCODING 202
SWIDTH 540 0
DWIDTH 12 0
BBX 0 0 0 0
BITMAP
ENDCHAR
STARTCHAR 00CB
ENCODING 203
SWIDTH 540 0
DWIDTH 12 0
BBX 0 0 0 0
BITMAP
ENDCHAR
STARTCHAR 00CC
ENCODING 204
SWIDTH 315 0
DWIDTH 7 0
BBX 0 0 0 0
BITMAP
ENDCHAR
STARTCHAR 00CD
ENCODING 205
SWIDTH 315 0
DWIDTH 7 0
BBX 0 0 0 0
BITMAP
ENDCHAR
STARTCHAR 00CE
ENCODING 206
SWIDTH 315 0
DWIDTH 7 0
BBX 0 0 0 0
BITMAP
ENDCHAR
STARTCHAR 00CF
ENCODING 207
SWIDTH 315 0
DWIDTH 7 0
BBX 0 0 0 0
BITMAP
ENDCHAR
STARTCHAR 00D0
ENCODING 208
SWIDTH 720 0
DWIDTH 16 0
BBX 0 0 0 0
BITMAP
ENDCHAR
STARTCHAR 00D1
ENCODING 209
SWIDTH 765 0
DWIDTH 17 0
BBX 0 0 0 0
BITMAP
ENDCHAR
STARTCHAR 00D2
ENCODING 210
SWIDTH 810 0
DWIDTH 18 0
BBX 0 0 0 0
BITMAP
ENDCHAR
STARTCHAR 00D3
ENCODING 211
SWIDTH 810 0
DWIDTH 18 0
BBX 0 0 0 0
BITMAP
ENDCHAR
STARTCHAR 00D4
ENCODING 212
SWIDTH 810 0
DWIDTH 18 0
BBX 0 0 0 0
BITMAP
ENDCHAR
STARTCHAR 00D5
ENCODING 213
SWIDTH 810 0
DWIDTH 18 0
BBX 0 0 0 0
BITMAP
ENDCHAR
STARTCHAR 00D6
ENCODING 214
SWIDTH 810 0
DWIDTH 18 0
BBX 0 0 0 0
BITMAP
ENDCHAR
STARTCHAR 00D7
ENCODING 215
SWIDTH 495 0
DWIDTH 11 0
BBX 7 7 2 5
BITMAP
C6
6C
38
38
6C
C6
82
ENDCHAR
STARTCHAR 00D8
ENCODING 216
SWIDTH 810 0
DWIDTH 18 0
BBX 0 0 0 0
BITMAP
ENDCHAR
STARTCHAR 00D9
ENCODING 217
SWIDTH 720 0
DWIDTH 16 0
BBX 0 0 0 0
BITMAP
ENDCHAR
STARTCHAR 00DA
ENCODING 218
SWIDTH 720 0
DWIDTH 16 0
BBX 0 0 0 0
BITMAP
ENDCHAR
STARTCHAR 00DB
ENCODING 219
SWIDTH 720 0
DWIDTH 16 0
BBX 0 0 0 0
BITMAP
ENDCHAR
STARTCHAR 00DC
ENCODING 220
SWIDTH 720 0
DWIDTH 16 0
BBX 0 0 0 0
BITMAP
ENDCHAR
STARTCHAR 00DD
ENCODING 221
SWIDTH 585 0
DWIDTH 13 0
BBX 0 0 0 0
BITMAP
ENDCHAR
STARTCHAR 00DE
ENCODING 222
SWIDTH 540 0
DWIDTH 12 0
BBX 0 0 0 0
BITMAP
ENDCHAR
STARTCHAR 00DF
ENCODING 223
SWIDTH 630 0
DWIDTH 14 0
BBX 0 0 0 0
BITMAP
ENDCHAR
STARTCHAR 00E0
ENCODING 224
SWIDTH 450 0
DWIDTH 10 0
BBX 0 0 0 0
BITMAP
ENDCHAR
STARTCHAR 00E1
ENCODING 225
SWIDTH 450 0
DWIDTH 10 0
BBX 0 0 0 0
BITMAP
ENDCHAR
STARTCHAR 00E2
ENCODING 226
SWIDTH 450 0
DWIDTH 10 0
BBX 0 0 0 0
BITMAP
ENDCHAR
STARTCHAR 00E3
ENCODING 227
SWIDTH 450 0
DWIDTH 10 0
BBX 0 0 0 0
BITMAP
ENDCHAR
STARTCHAR 00E4
ENCODING 228
SWIDTH 450 0
DWIDTH 10 0
BBX 0 0 0 0
BITMAP
ENDCHAR
STARTCHAR 00E5
ENCODING 229
SWIDTH 450 0
DWIDTH 10 0
BBX 0 0 0 0
BITMAP
ENDCHAR
STARTCHAR 00E6
ENCODING 230
SWIDTH 720 0
DWIDTH 16 0
BBX 0 0 0 0
BITMAP
ENDCHAR
STARTCHAR 00E7
ENCODING 231
SWIDTH 450 0
DWIDTH 10 0
BBX 0 0 0 0
BITMAP
ENDCHAR
STARTCHAR 00E8
ENCODING 232
SWIDTH 450 0
DWIDTH 10 0
BBX 0 0 0 0
BITMAP
ENDCHAR
STARTCHAR 00E9
ENCODING 233
SWIDTH 450 0
DWIDTH 10 0
BBX 0 0 0 0
BITMAP
ENDCHAR
STARTCHAR 00EA
ENCODING 234
SWIDTH 450 0
DWIDTH 10 0
BBX 0 0 0 0
BITMAP
ENDCHAR
STARTCHAR 00EB
ENCODING 235
SWIDTH 450 0
DWIDTH 10 0
BBX 0 0 0 0
BITMAP
ENDCHAR
STARTCHAR 00EC
ENCODING 236
SWIDTH 270 0
DWIDTH 6 0
BBX 0 0 0 0
BITMAP
ENDCHAR
STARTCHAR 00ED
ENCODING 237
SWIDTH 270 0
DWIDTH 6 0
BBX 0 0 0 0
BITMAP
ENDCHAR
STARTCHAR 00EE
ENCODING 238
SWIDTH 270 0
DWIDTH 6 0
BBX 0 0 0 0
BITMAP
ENDCHAR
STARTCHAR 00EF
ENCODING 239
SWIDTH 270 0
DWIDTH 6 0
BBX 0 0 0 0
BITMAP
ENDCHAR
STARTCHAR 00F0
ENCODING 240
SWIDTH 540 0
DWIDTH 12 0
BBX 0 0 0 0
BITMAP
ENDCHAR
STARTCHAR 00F1
ENCODING 241
SWIDTH 540 0
DWIDTH 12 0
BBX 0 0 0 0
BITMAP
ENDCHAR
STARTCHAR 00F2
ENCODING 242
SWIDTH 495 0
DWIDTH 11 0
BBX 0 0 0 0
BITMAP
ENDCHAR
STARTCHAR 00F3
ENCODING 243
SWIDTH 495 0
DWIDTH 11 0
BBX 0 0 0 0
BITMAP
ENDCHAR
STARTCHAR 00F4
ENCODING 244
SWIDTH 495 0
DWIDTH 11 0
BBX 0 0 0 0
BITMAP
ENDCHAR
STARTCHAR 00F5
ENCODING 245
SWIDTH 495 0
DWIDTH 11 0
BBX 0 0 0 0
BITMAP
ENDCHAR
STARTCHAR 00F6
ENCODING 246
SWIDTH 495 0
DWIDTH 11 0
BBX 0 0 0 0
BITMAP
ENDCHAR
STARTCHAR 00F7
ENCODING 247
SWIDTH 495 0
DWIDTH 11 0
BBX 9 10 1 3
BITMAP
0800
1C00
0800
0000
FF80
FF80
0000
0800
1C00
0800
ENDCHAR
STARTCHAR 00F8
ENCODING 248
SWIDTH 495 0
DWIDTH 11 0
BBX 0 0 0 0
BITMAP
ENDCHAR
STARTCHAR 00F9
ENCODING 249
SWIDTH 495 0
DWIDTH 11 0
BBX 0 0 0 0
BITMAP
ENDCHAR
STARTCHAR 00FA
ENCODING 250
SWIDTH 495 0
DWIDTH 11 0
BBX 0 0 0 0
BITMAP
ENDCHAR
STARTCHAR 00FB
ENCODING 251
SWIDTH 495 0
DWIDTH 11 0
BBX 0 0 0 0
BITMAP
ENDCHAR
STARTCHAR 00FC
ENCODING 252
SWIDTH 495 0
DWIDTH 11 0
BBX 0 0 0 0
BITMAP
ENDCHAR
STARTCHAR 00FD
ENCODING 253
SWIDTH 405 0
DWIDTH 9 0
BBX 0 0 0 0
BITMAP
ENDCHAR
STARTCHAR 00FE
ENCODING 254
SWIDTH 495 0
DWIDTH 11 0
BBX 0 0 0 0
BITMAP
ENDCHAR
STARTCHAR 00FF
ENCODING 255
SWIDTH 405 0
DWIDTH 9 0
BBX 0 0 0 0
BITMAP
ENDCHAR
STARTCHAR 0131
ENCODING 305
SWIDTH 270 0
DWIDTH 6 0
BBX 5 11 0 0
BITMAP
10
30
F0
30
30
30
30
30
30
30
F8
ENDCHAR
STARTCHAR 02C6
ENCODING 710
SWIDTH 495 0
DWIDTH 11 0
BBX 5 4 3 12
BITMAP
30
70
C8
88
ENDCHAR
STARTCHAR 02C7
ENCODING 711
SWIDTH 495 0
DWIDTH 11 0
BBX 5 4 3 12
BITMAP
88
C8
70
30
ENDCHAR
STARTCHAR 02C9
ENCODING 713
SWIDTH 495 0
DWIDTH 11 0
BBX 6 1 3 13
BITMAP
FC
ENDCHAR
STARTCHAR 02D8
ENCODING 728
SWIDTH 495 0
DWIDTH 11 0
BBX 7 3 2 12
BITMAP
82
44
7C
ENDCHAR
STARTCHAR 02D9
ENCODING 729
SWIDTH 495 0
DWIDTH 11 0
BBX 3 3 4 12
BITMAP
40
E0
40
ENDCHAR
STARTCHAR 02DA
ENCODING 730
SWIDTH 540 0
DWIDTH 12 0
BBX 4 4 4 12
BITMAP
60
90
90
60
ENDCHAR
STARTCHAR 02DB
ENCODING 731
SWIDTH 495 0
DWIDTH 11 0
BBX 4 5 4 -5
BITMAP
20
40
80
90
E0
ENDCHAR
STARTCHAR 02DC
ENCODING 732
SWIDTH 495 0
DWIDTH 11 0
BBX 6 2 3 12
BITMAP
E4
B8
ENDCHAR
STARTCHAR 02DD
ENCODING 733
SWIDTH 495 0
DWIDTH 11 0
BBX 7 4 2 12
BITMAP
36
24
48
88
ENDCHAR
STARTCHAR 037E
ENCODING 894
SWIDTH 270 0
DWIDTH 6 0
BBX 3 13 1 -3
BITMAP
60
60
00
00
00
00
00
40
E0
60
20
20
40
ENDCHAR
STARTCHAR 2013
ENCODING 8211
SWIDTH 540 0
DWIDTH 12 0
BBX 11 1 1 5
BITMAP
FFE0
ENDCHAR
STARTCHAR 2014
ENCODING 8212
SWIDTH 990 0
DWIDTH 22 0
BBX 22 1 0 5
BITMAP
FFFFFC
ENDCHAR
STARTCHAR 2018
ENCODING 8216
SWIDTH 270 0
DWIDTH 6 0
BBX 2 6 2 11
BITMAP
40
80
80
80
C0
C0
ENDCHAR
STARTCHAR 2019
ENCODING 8217
SWIDTH 270 0
DWIDTH 6 0
BBX 3 6 1 11
BITMAP
40
E0
60
20
40
40
ENDCHAR
STARTCHAR 201A
ENCODING 8218
SWIDTH 270 0
DWIDTH 6 0
BBX 3 6 1 -3
BITMAP
40
E0
60
20
40
40
ENDCHAR
STARTCHAR 201C
ENCODING 8220
SWIDTH 450 0
DWIDTH 10 0
BBX 6 6 2 11
BITMAP
44
88
88
88
EC
CC
ENDCHAR
STARTCHAR 201D
ENCODING 8221
SWIDTH 450 0
DWIDTH 10 0
BBX 7 6 1 11
BITMAP
44
EE
66
22
44
44
ENDCHAR
STARTCHAR 201E
ENCODING 8222
SWIDTH 450 0
DWIDTH 10 0
BBX 7 6 1 -3
BITMAP
44
EE
66
22
44
44
ENDCHAR
STARTCHAR 2020
ENCODING 8224
SWIDTH 495 0
DWIDTH 11 0
BBX 9 18 1 -2
BITMAP
1C00
1C00
0800
C980
FF80
C980
0800
1C00
1C00
1800
0800
0800
0800
0800
0800
0800
0800
0800
ENDCHAR
STARTCHAR 2021
ENCODING 8225
SWIDTH 495 0
DWIDTH 11 0
BBX 9 18 1 -2
BITMAP
1C00
1C00
0800
C980
FF80
C980
0800
0800
1C00
1C00
0800
0800
C980
FF80
C980
0800
1C00
1C00
ENDCHAR
STARTCHAR 2022
ENCODING 8226
SWIDTH 495 0
DWIDTH 11 0
BBX 6 6 2 5
BITMAP
78
FC
FC
FC
FC
78
ENDCHAR
STARTCHAR 2026
ENCODING 8230
SWIDTH 990 0
DWIDTH 22 0
BBX 18 3 1 0
BITMAP
404080
E0E1C0
404080
ENDCHAR
STARTCHAR 2039
ENCODING 8249
SWIDTH 315 0
DWIDTH 7 0
BBX 4 6 2 2
BITMAP
10
20
C0
40
20
10
ENDCHAR
STARTCHAR 203A
ENCODING 8250
SWIDTH 315 0
DWIDTH 7 0
BBX 4 6 1 2
BITMAP
80
40
30
20
40
80
ENDCHAR
STARTCHAR 2044
ENCODING 8260
SWIDTH 180 0
DWIDTH 4 0
BBX 10 16 -3 0
BITMAP
0040
0080
0080
0100
0100
0200
0400
0400
0800
1000
1000
2000
4000
4000
8000
8000
ENDCHAR
STARTCHAR 20A3
ENCODING 8355
SWIDTH 540 0
DWIDTH 12 0
BBX 11 16 1 0
BITMAP
FFC0
3020
3000
3000
3000
3000
3040
3FC0
3040
3040
3000
FC00
3000
3000
3000
FC00
ENDCHAR
STARTCHAR 20A4
ENCODING 8356
SWIDTH 495 0
DWIDTH 11 0
BBX 9 16 1 0
BITMAP
0F80
3080
2000
6000
6000
6000
6000
FE00
2000
FE00
3000
3000
3000
2000
6080
7F80
ENDCHAR
STARTCHAR 20A7
ENCODING 8359
SWIDTH 1035 0
DWIDTH 23 0
BBX 21 16 1 0
BITMAP
FF0000
308000
30C400
304400
306C00
307FE0
306D10
304D00
30CD80
388DC0
370C70
300C38
300C08
300E08
300D10
FC07E0
ENDCHAR
STARTCHAR 20AC
ENCODING 8364
SWIDTH 495 0
DWIDTH 11 0
BBX 12 17 0 0
BITMAP
0380
0C60
1020
2000
2000
6000
4000
4000
FFC0
FF80
4000
6000
6000
2010
1010
0820
07C0
ENDCHAR
STARTCHAR 2116
ENCODING 8470
SWIDTH 1125 0
DWIDTH 25 0
BBX 0 0 0 0
BITMAP
ENDCHAR
STARTCHAR 2122
ENCODING 8482
SWIDTH 720 0
DWIDTH 16 0
BBX 0 0 0 0
BITMAP
ENDCHAR
STARTCHAR 2202
ENCODING 8706
SWIDTH 495 0
DWIDTH 11 0
BBX 10 17 1 -1
BITMAP
3000
0C00
0600
0300
0100
0D80
3380
4180
C1C0
C0C0
C0C0
C0C0
C0C0
E080
6180
3100
0E00
ENDCHAR
STARTCHAR 2206
ENCODING 8710
SWIDTH 540 0
DWIDTH 12 0
BBX 11 15 0 1
BITMAP
0400
0600
0A00
0A00
0B00
1100
1180
1080
2080
20C0
4040
4040
4060
8020
FFE0
ENDCHAR
STARTCHAR 220F
ENCODING 8719
SWIDTH 720 0
DWIDTH 16 0
BBX 15 21 1 -5
BITMAP
FFFE
7018
3018
2018
2018
2018
2018
2018
2018
2018
2018
2018
2018
2018
2018
2018
2018
2018
3018
7018
FC7E
ENDCHAR
STARTCHAR 2211
ENCODING 8721
SWIDTH 585 0
DWIDTH 13 0
BBX 11 21 1 -5
BITMAP
FFC0
7020
3800
1800
0C00
0E00
0700
0380
0180
00C0
00C0
0080
0100
0300
0200
0400
0800
1000
2000
4020
FFC0
ENDCHAR
STARTCHAR 2212
ENCODING 8722
SWIDTH 495 0
DWIDTH 11 0
BBX 9 2 1 7
BITMAP
FF80
FF80
ENDCHAR
STARTCHAR 2215
ENCODING 8725
SWIDTH 180 0
DWIDTH 4 0
BBX 10 16 -3 0
BITMAP
0040
0080
0080
0100
0100
0200
0400
0400
0800
1000
1000
2000
4000
4000
8000
8000
ENDCHAR
STARTCHAR 2219
ENCODING 8729
SWIDTH 270 0
DWIDTH 6 0
BBX 3 3 1 6
BITMAP
40
E0
40
ENDCHAR
STARTCHAR 221A
ENCODING 8730
SWIDTH 495 0
DWIDTH 11 0
BBX 11 18 0 0
BITMAP
0020
0040
0040
0080
0080
0100
0100
0200
0200
0400
0400
0800
0800
1000
9000
6000
6000
4000
ENDCHAR
STARTCHAR 221E
ENCODING 8734
SWIDTH 495 0
DWIDTH 11 0
BBX 11 8 0 4
BITMAP
0180
33C0
4C40
8840
8820
8840
76C0
0380
ENDCHAR
STARTCHAR 222B
ENCODING 8747
SWIDTH 315 0
DWIDTH 7 0
BBX 9 22 -1 -3
BITMAP
0180
0280
0400
0400
0400
0C00
0C00
0C00
0800
0800
0800
0800
0800
0800
0800
1800
1800
1000
1000
1000
A000
C000
ENDCHAR
STARTCHAR 2248
ENCODING 8776
SWIDTH 495 0
DWIDTH 11 0
BBX 9 6 1 5
BITMAP
7880
DF80
8200
0000
7880
DF80
ENDCHAR
STARTCHAR 2264
ENCODING 8804
SWIDTH 495 0
DWIDTH 11 0
BBX 9 13 1 0
BITMAP
0180
0380
0E00
3800
F000
E000
7000
1C00
0700
0180
0080
FF80
FF80
ENDCHAR
STARTCHAR 2265
ENCODING 8805
SWIDTH 495 0
DWIDTH 11 0
BBX 9 13 1 0
BITMAP
C000
E000
3800
0E00
0780
0380
0700
1C00
7000
C000
8000
FF80
FF80
ENDCHAR
STARTCHAR F001
ENCODING 61441
SWIDTH 540 0
DWIDTH 12 0
BBX 0 0 0 0
BITMAP
ENDCHAR
STARTCHAR F002
ENCODING 61442
SWIDTH 540 0
DWIDTH 12 0
BBX 0 0 0 0
BITMAP
ENDCHAR
STARTCHAR FB01
ENCODING 64257
SWIDTH 540 0
DWIDTH 12 0
BBX 0 0 0 0
BITMAP
ENDCHAR
STARTCHAR FB02
ENCODING 64258
SWIDTH 540 0
DWIDTH 12 0
BBX 0 0 0 0
BITMAP
ENDCHAR
ENDFONT
